<svg width="210" height="210" viewBox="0 0 210 210" fill="none" xmlns="http://www.w3.org/2000/svg">
<g clip-path="url(#clip0_1_4303)">
<path d="M172.368 25.0703C172.362 38.5281 161.347 49.5391 147.889 49.5391L147.894 37.3047C154.623 37.3047 160.131 31.7992 160.134 25.0703C160.137 18.3414 154.634 12.8359 147.905 12.8359C143.623 12.8359 139.829 15.0375 137.503 18.5851C131.015 28.9859 121.59 38.6508 108.739 48.3156L105.071 43.4219L101.399 48.3156C88.5569 38.6508 79.14 28.9859 72.6609 18.5851C70.3383 15.0375 66.5462 12.8359 62.2642 12.8359C55.5353 12.8359 50.0274 18.3414 50.0245 25.0703C50.0216 31.7992 55.5247 37.3047 62.2536 37.3047L62.2483 49.5391C48.7904 49.5391 37.7843 38.5281 37.7901 25.0703C37.796 11.6125 48.8117 0.601562 62.2695 0.601562C70.7109 0.601562 78.4177 4.88359 82.9403 12.1016C88.0759 20.1766 95.4131 27.8836 105.075 35.5922C114.743 27.8836 122.087 20.1766 127.229 12.1016C131.758 4.88359 139.469 0.601562 147.91 0.601562C161.368 0.601562 172.374 11.6125 172.368 25.0703Z" fill="#01B664"/>
<path d="M172.368 25.0703C172.362 38.5281 161.347 49.5391 147.889 49.5391L147.894 37.3047C154.623 37.3047 160.131 31.7992 160.134 25.0703C160.137 18.3414 154.634 12.8359 147.905 12.8359C143.623 12.8359 139.829 15.0375 137.503 18.5851C131.015 28.9859 121.59 38.6508 108.739 48.3156L105.071 43.4219L105.075 35.5922C114.743 27.8836 122.087 20.1766 127.229 12.1016C131.758 4.88359 139.469 0.601562 147.91 0.601562C161.368 0.601562 172.374 11.6125 172.368 25.0703Z" fill="#01D676"/>
<path d="M197.226 74.0078L197.167 209.402H123.353L111.124 197.167H98.8894L86.6497 209.402H12.8357L12.8945 74.0078H197.226Z" fill="#28A46C"/>
<path d="M197.224 74.0078L197.165 209.402H123.351L111.122 197.167H105.005L105.059 74.0078H197.224Z" fill="#4ADF9D"/>
<path d="M209.476 37.3047L209.455 86.2422H0.654509L0.675781 37.3047H86.7242L98.9533 49.5391H111.188L123.427 37.3047H209.476Z" fill="#4ADF9C"/>
<path d="M209.474 37.3047L209.453 86.2422H105.053L105.069 49.5391H111.186L123.426 37.3047H209.474Z" fill="#1ED884"/>
<path d="M86.7227 37.3047H123.426L123.351 209.402H86.6478L86.7227 37.3047Z" fill="#01D676"/>
<path d="M105.074 37.3047H123.426L123.351 209.402H104.999L105.074 37.3047Z" fill="#018047"/>
</g>
<defs>
<clipPath id="clip0_1_4303">
<rect width="208.8" height="208.8" fill="white" transform="matrix(1 0 -0.000434676 1 0.691406 0.601562)"/>
</clipPath>
</defs>
</svg>
