<svg width="16" height="10" viewBox="0 0 16 10" fill="none" xmlns="http://www.w3.org/2000/svg">
<path d="M10.0013 1.66797H12.0013C12.439 1.66797 12.8725 1.75419 13.2769 1.9217C13.6813 2.08922 14.0488 2.33475 14.3583 2.64428C14.6679 2.95381 14.9134 3.32127 15.0809 3.72569C15.2484 4.13011 15.3346 4.56356 15.3346 5.0013C15.3346 5.43904 15.2484 5.87249 15.0809 6.27691C14.9134 6.68133 14.6679 7.0488 14.3583 7.35832C14.0488 7.66785 13.6813 7.91338 13.2769 8.0809C12.8725 8.24842 12.439 8.33464 12.0013 8.33464H10.0013M6.0013 8.33464H4.0013C3.56356 8.33464 3.13011 8.24842 2.72569 8.0809C2.32127 7.91338 1.95381 7.66785 1.64428 7.35832C1.01916 6.7332 0.667969 5.88536 0.667969 5.0013C0.667969 4.11725 1.01916 3.2694 1.64428 2.64428C2.2694 2.01916 3.11725 1.66797 4.0013 1.66797H6.0013" stroke="white" stroke-width="1.5" stroke-linecap="round" stroke-linejoin="round"/>
</svg>
