<svg width="20" height="20" viewBox="0 0 20 20" fill="none" xmlns="http://www.w3.org/2000/svg">
<g clip-path="url(#clip0_1_3475)">
<path d="M10 12.5C11.3807 12.5 12.5 11.3807 12.5 10C12.5 8.61929 11.3807 7.5 10 7.5C8.61929 7.5 7.5 8.61929 7.5 10C7.5 11.3807 8.61929 12.5 10 12.5Z" stroke="white" stroke-width="1.5" stroke-linecap="round" stroke-linejoin="round"/>
<path d="M16.1654 12.4987C16.0544 12.75 16.0213 13.0289 16.0704 13.2992C16.1194 13.5695 16.2483 13.819 16.4404 14.0154L16.4904 14.0654C16.6453 14.2202 16.7683 14.404 16.8521 14.6063C16.936 14.8086 16.9792 15.0255 16.9792 15.2445C16.9792 15.4636 16.936 15.6804 16.8521 15.8828C16.7683 16.0851 16.6453 16.2689 16.4904 16.4237C16.3356 16.5787 16.1518 16.7016 15.9494 16.7855C15.7471 16.8693 15.5302 16.9125 15.3112 16.9125C15.0922 16.9125 14.8753 16.8693 14.673 16.7855C14.4706 16.7016 14.2868 16.5787 14.132 16.4237L14.082 16.3737C13.8856 16.1816 13.6362 16.0527 13.3659 16.0037C13.0955 15.9547 12.8167 15.9878 12.5654 16.0987C12.3189 16.2043 12.1087 16.3797 11.9606 16.6033C11.8126 16.8269 11.7331 17.0889 11.732 17.357V17.4987C11.732 17.9407 11.5564 18.3646 11.2439 18.6772C10.9313 18.9898 10.5074 19.1654 10.0654 19.1654C9.62334 19.1654 9.19941 18.9898 8.88685 18.6772C8.57429 18.3646 8.3987 17.9407 8.3987 17.4987V17.4237C8.39225 17.1479 8.30296 16.8804 8.14246 16.6559C7.98195 16.4315 7.75764 16.2606 7.4987 16.1654C7.24735 16.0544 6.96854 16.0213 6.69821 16.0704C6.42788 16.1194 6.17843 16.2483 5.98203 16.4404L5.93203 16.4904C5.77724 16.6453 5.59343 16.7683 5.3911 16.8521C5.18877 16.936 4.97189 16.9792 4.75286 16.9792C4.53384 16.9792 4.31696 16.936 4.11463 16.8521C3.9123 16.7683 3.72849 16.6453 3.5737 16.4904C3.41874 16.3356 3.29581 16.1518 3.21193 15.9494C3.12806 15.7471 3.08489 15.5302 3.08489 15.3112C3.08489 15.0922 3.12806 14.8753 3.21193 14.673C3.29581 14.4706 3.41874 14.2868 3.5737 14.132L3.6237 14.082C3.81581 13.8856 3.94469 13.6362 3.9937 13.3659C4.04272 13.0955 4.00963 12.8167 3.8987 12.5654C3.79306 12.3189 3.61766 12.1087 3.39409 11.9606C3.17051 11.8126 2.90852 11.7331 2.64036 11.732H2.4987C2.05667 11.732 1.63275 11.5564 1.32019 11.2439C1.00763 10.9313 0.832031 10.5074 0.832031 10.0654C0.832031 9.62334 1.00763 9.19941 1.32019 8.88685C1.63275 8.57429 2.05667 8.3987 2.4987 8.3987H2.5737C2.84953 8.39225 3.11704 8.30296 3.34145 8.14246C3.56586 7.98195 3.73679 7.75764 3.83203 7.4987C3.94296 7.24735 3.97605 6.96854 3.92704 6.69821C3.87802 6.42788 3.74915 6.17843 3.55703 5.98203L3.50703 5.93203C3.35207 5.77724 3.22914 5.59343 3.14527 5.3911C3.06139 5.18877 3.01822 4.97189 3.01822 4.75286C3.01822 4.53384 3.06139 4.31696 3.14527 4.11463C3.22914 3.9123 3.35207 3.72849 3.50703 3.5737C3.66182 3.41874 3.84563 3.29581 4.04796 3.21193C4.25029 3.12806 4.46717 3.08489 4.6862 3.08489C4.90522 3.08489 5.1221 3.12806 5.32443 3.21193C5.52676 3.29581 5.71058 3.41874 5.86536 3.5737L5.91536 3.6237C6.11176 3.81581 6.36121 3.94469 6.63154 3.9937C6.90187 4.04272 7.18068 4.00963 7.43203 3.8987H7.4987C7.74517 3.79306 7.95538 3.61766 8.10344 3.39409C8.25151 3.17051 8.33096 2.90852 8.33203 2.64036V2.4987C8.33203 2.05667 8.50763 1.63275 8.82019 1.32019C9.13275 1.00763 9.55667 0.832031 9.9987 0.832031C10.4407 0.832031 10.8646 1.00763 11.1772 1.32019C11.4898 1.63275 11.6654 2.05667 11.6654 2.4987V2.5737C11.6664 2.84185 11.7459 3.10384 11.894 3.32742C12.042 3.55099 12.2522 3.7264 12.4987 3.83203C12.75 3.94296 13.0289 3.97605 13.2992 3.92704C13.5695 3.87802 13.819 3.74915 14.0154 3.55703L14.0654 3.50703C14.2202 3.35207 14.404 3.22914 14.6063 3.14527C14.8086 3.06139 15.0255 3.01822 15.2445 3.01822C15.4636 3.01822 15.6804 3.06139 15.8828 3.14527C16.0851 3.22914 16.2689 3.35207 16.4237 3.50703C16.5787 3.66182 16.7016 3.84563 16.7855 4.04796C16.8693 4.25029 16.9125 4.46717 16.9125 4.6862C16.9125 4.90522 16.8693 5.1221 16.7855 5.32443C16.7016 5.52676 16.5787 5.71058 16.4237 5.86536L16.3737 5.91536C16.1816 6.11176 16.0527 6.36121 16.0037 6.63154C15.9547 6.90187 15.9878 7.18068 16.0987 7.43203V7.4987C16.2043 7.74517 16.3797 7.95538 16.6033 8.10344C16.8269 8.25151 17.0889 8.33096 17.357 8.33203H17.4987C17.9407 8.33203 18.3646 8.50763 18.6772 8.82019C18.9898 9.13275 19.1654 9.55667 19.1654 9.9987C19.1654 10.4407 18.9898 10.8646 18.6772 11.1772C18.3646 11.4898 17.9407 11.6654 17.4987 11.6654H17.4237C17.1555 11.6664 16.8936 11.7459 16.67 11.894C16.4464 12.042 16.271 12.2522 16.1654 12.4987V12.4987Z" stroke="white" stroke-width="1.5" stroke-linecap="round" stroke-linejoin="round"/>
</g>
<defs>
<clipPath id="clip0_1_3475">
<rect width="20" height="20" fill="white"/>
</clipPath>
</defs>
</svg>
