<svg width="20" height="21" viewBox="0 0 20 21" fill="none" xmlns="http://www.w3.org/2000/svg">
<g clip-path="url(#clip0_1_7699)">
<path fill-rule="evenodd" clip-rule="evenodd" d="M10 0.949219C4.47717 0.949219 0 5.42633 0 10.9492C0 16.472 4.47717 20.9492 10 20.9492C15.5229 20.9492 20 16.472 20 10.9492C20 5.42633 15.5229 0.949219 10 0.949219ZM10 18.9492C5.58881 18.9492 2 15.3604 2 10.9492C2 6.53803 5.58881 2.94922 10 2.94922C14.4113 2.94922 18 6.53803 18 10.9492C18 15.3604 14.4113 18.9492 10 18.9492ZM11.2522 6.94922C11.2522 7.67426 10.7243 8.19922 10.0102 8.19922C9.26713 8.19922 8.75219 7.67426 8.75219 6.93535C8.75219 6.22517 9.28107 5.69922 10.0102 5.69922C10.7243 5.69922 11.2522 6.22517 11.2522 6.94922ZM9.00219 9.94922H11.0022V15.9492H9.00219V9.94922Z" fill="white"/>
</g>
<defs>
<clipPath id="clip0_1_7699">
<rect width="20" height="20" fill="white" transform="translate(0 0.949219)"/>
</clipPath>
</defs>
</svg>
